<svg width="424" height="106" viewBox="0 0 424 106" fill="none" xmlns="http://www.w3.org/2000/svg">
<path fill-rule="evenodd" clip-rule="evenodd" d="M399 0.118238L399.1 0H22.0515L0.109284 25.9955L0 25.8876V80.1156L25.0336 104.837L24.0515 106H400.1L422.924 78.9592L424 80.0215V24.806L399 0.118238Z" fill="#2135A6"/>
<path d="M49.7889 27.0078H85.4833L95.4217 36.9462V66.0616L85.4833 76H49.7889V27.0078ZM81.4939 68.5812L87.023 63.0521V39.9557L81.4939 34.4266H58.1876V68.5812H81.4939ZM105.162 67.8813V49.1243L113.281 41.0056H132.808L140.927 49.1243V62.0022H113.071V65.0117L117.06 69.0011H138.407V76H113.281L105.162 67.8813ZM133.018 55.4933V51.7838L129.028 47.7945H117.06L113.071 51.7838V55.4933H133.018ZM148.36 69.1411H171.176L173.066 67.2514V63.7519L171.176 61.7923H154.099L147.94 55.7032V47.0946L154.099 41.0056H179.155V47.7945H157.809L155.849 49.7542V53.0436L157.809 55.0033H174.886L180.975 61.0924V69.841L174.886 76H148.36V69.1411ZM186.882 69.841V60.6024L193.531 53.9535H213.548V50.944L210.609 48.0044H191.502V41.0056H214.388L221.457 48.0744V76H215.228V72.7105H214.038L209.979 76H193.041L186.882 69.841ZM208.579 69.1411L213.548 65.1517V60.3925H197.381L194.791 62.9821V67.2514L196.751 69.1411H208.579ZM234.223 47.7945H227.224V41.0056H234.223V32.047L239.262 27.0078H258.579V33.7967H242.901L241.992 34.7065V41.0056H265.228V76H257.319V47.7945H242.132V76H234.223V47.7945ZM274.598 67.8813V49.1243L282.717 41.0056H302.804L310.922 49.1243V67.8813L302.804 76H282.717L274.598 67.8813ZM299.024 69.0011L303.014 65.0117V51.9938L299.024 48.0044H286.496L282.507 51.9938V65.0117L286.496 69.0011H299.024ZM343.077 57.8029L352.245 48.6343H373.522L376.952 45.2049V37.926L373.452 34.4266H344.897V27.0078H377.651L385.35 34.7065V48.1444L377.651 55.8432H356.375L351.476 60.7424V68.3712H385V76H343.077V57.8029Z" fill="white"/>
</svg>
