<svg xmlns="http://www.w3.org/2000/svg" xmlns:xlink="http://www.w3.org/1999/xlink" viewBox="0,0,256,256" width="120px" height="120px" fill-rule="nonzero"><g fill="#ffffff" fill-rule="nonzero" stroke="none" stroke-width="1" stroke-linecap="butt" stroke-linejoin="miter" stroke-miterlimit="10" stroke-dasharray="" stroke-dashoffset="0" font-family="none" font-weight="none" font-size="none" text-anchor="none" style="mix-blend-mode: normal"><g transform="scale(10.66667,10.66667)"><path d="M1.996,12c0,-5.52 4.479,-10 10,-10c5.52,0 10,4.48 10,10c0,4.48 -2.947,8.267 -7.003,9.533l0.004,-4.533c0,-0.4 -0.08,-0.786 -0.223,-1.133l-0.168,-0.32l0.147,-0.04c1.861,-0.733 3.243,-2.2 3.243,-4.013c0,-0.96 -0.401,-1.827 -1.048,-2.533l-0.098,-0.107l0.063,-0.374c0.085,-0.667 0.104,-1.333 0.052,-2.013c-0.024,-0.333 -0.347,-0.547 -0.655,-0.44c-0.681,0.227 -1.343,0.52 -1.968,0.934l-0.405,0.28l-0.277,-0.068c-0.53,-0.107 -1.088,-0.173 -1.664,-0.173c-0.58,0 -1.139,0.066 -1.668,0.173l-0.278,0.067l-0.405,-0.28c-0.625,-0.413 -1.285,-0.707 -1.964,-0.933c-0.309,-0.107 -0.632,0.106 -0.656,0.44c-0.053,0.679 -0.036,1.346 0.049,2.013l0.063,0.374l-0.097,0.106c-0.647,0.706 -1.044,1.573 -1.044,2.533c0,1.813 1.379,3.28 3.239,4.013l0.148,0.04l-0.168,0.32c-0.143,0.348 -0.221,0.734 -0.221,1.134h-1.498c-0.252,0 -0.492,-0.146 -0.764,-0.48c-0.287,-0.36 -0.544,-0.84 -0.808,-1.28c-0.143,-0.227 -0.451,-0.307 -0.687,-0.174c-0.236,0.147 -0.313,0.454 -0.171,0.693c0.292,0.48 0.549,0.973 0.888,1.387c0.356,0.441 0.848,0.854 1.542,0.854h1.499l-0.001,3.547c-4.055,-1.28 -6.998,-5.067 -6.998,-9.547z"></path></g></g></svg>