<svg width="716" height="127" viewBox="0 0 716 127" fill="none" xmlns="http://www.w3.org/2000/svg">
<path d="M190.963 116.789L175.737 101.443V53.3964H159.183V32.8726H175.737V10.5155H202.06V32.8726H230.361V53.3964H202.06V92.9334L204.21 95.1011H231.688V116.789H190.974H190.963Z" fill="white"/>
<path d="M246.743 116.789V32.8726H267.769V39.5486H270.915L278.694 32.8726H309.147V54.5609H280.845L273.066 60.9026V116.789H246.743Z" fill="white"/>
<path d="M319.076 19.6936V0H346.051V19.6821H319.076V19.6936ZM319.408 116.79V32.8726H345.731V116.79H319.408Z" fill="white"/>
<path d="M371.379 116.79V20.3624H354.826V0H397.702V116.778H371.379V116.79Z" fill="white"/>
<path d="M421.199 116.79V0H447.521V37.8652H449.18L455.3 32.8611H490.386L508.758 51.3786V116.778H482.435V60.2223L476.807 54.5494H455.953L447.51 61.3868V116.778H421.187L421.199 116.79Z" fill="white"/>
<path d="M540.869 116.789L525.643 101.443V80.0888L541.373 64.2348H587.383V58.8963L582.578 53.8922H536.9V32.8726H596.649L613.694 50.0526V116.789H592.668V109.952H590.014L581.903 116.789H540.858H540.869ZM554.94 96.7731H579.764L587.383 90.6044V81.2649H556.095L551.954 85.4389V93.7752L554.929 96.7731H554.94Z" fill="white"/>
<path d="M633.566 116.789V96.7731H686.703L689.677 93.7752V87.9409L686.703 84.7701H647.476L632.25 69.5848V48.0579L647.476 32.8726H711.367V52.8891H661.547L658.573 55.8869V61.7212L661.547 64.7191H700.774L716 80.0658V101.42L700.774 116.766H633.577L633.566 116.789Z" fill="white"/>
<path d="M100.818 6.34167H18.8755L0 26.8539L0.995255 108.949L19.3674 126.475H98.3357L119.202 108.949L120.197 25.8508L100.83 6.33014L100.818 6.34167ZM104.342 101.673L100.383 104.994H88.5662L84.997 101.604L84.9742 99.7133H40.6567L30.4067 89.3822V72.479L40.6567 62.1479H72.3447L77.9387 56.5096V47.5852L72.3447 41.947H35.2114L35.1885 44.1492L31.2304 47.4815H19.4132L15.844 44.0801L15.6953 31.7197L19.2645 27.834H31.6537L35.3258 31.5467L35.3029 33.9681H76.5431L86.7931 44.2991V59.7957L76.5431 70.1268H44.8551L39.2611 75.7651V86.0961L44.8551 91.7344H84.8826L84.8598 89.2439L88.429 85.3582H100.807L104.49 89.0594L104.342 101.673Z" fill="white"/>
</svg>
